/* XPM */
static char * sample_xpm[] = {
"16 16 96 2",
"  	c None",
". 	c #A5A5E1",
"+ 	c #C5C5FB",
"@ 	c #B4B4FB",
"# 	c #A6A6FB",
"$ 	c #9898FB",
"% 	c #6262D6",
"& 	c #B9B9F1",
"* 	c #B4B4FE",
"= 	c #9F9FFF",
"- 	c #9090FF",
"; 	c #8383FE",
"> 	c #5A5AE2",
", 	c #A4A4F1",
"' 	c #9A9AFF",
") 	c #8383FF",
"! 	c #6A6AFF",
"~ 	c #4C4CFE",
"{ 	c #3A3ADF",
"] 	c #8889F2",
"^ 	c #7D7DFF",
"/ 	c #5757FF",
"( 	c #3D3DFF",
"_ 	c #9191AE",
": 	c #F6F6BB",
"< 	c #EFEFAA",
"[ 	c #F0F09D",
"} 	c #F0F090",
"| 	c #ECEC7E",
"1 	c #D79595",
"2 	c #EBAEAE",
"3 	c #EBA09F",
"4 	c #CC8399",
"5 	c #646AF6",
"6 	c #4F4FFF",
"7 	c #3636FF",
"8 	c #2525FF",
"9 	c #D0D086",
"0 	c #FFFFCF",
"a 	c #FEFEA5",
"b 	c #FFFF97",
"c 	c #FFFF88",
"d 	c #FDFD78",
"e 	c #FDD0D0",
"f 	c #FFBABA",
"g 	c #FFA2A2",
"h 	c #FF9592",
"i 	c #3B33D1",
"j 	c #1F26F3",
"k 	c #1C1CEB",
"l 	c #0C0CEF",
"m 	c #CECE73",
"n 	c #FFFFBB",
"o 	c #FEFE79",
"p 	c #F1F156",
"q 	c #EFEF49",
"r 	c #FDBEBE",
"s 	c #FFA1A1",
"t 	c #FF8686",
"u 	c #FE6E6F",
"v 	c #FF5957",
"w 	c #CC3648",
"x 	c #CECE4E",
"y 	c #FFFFA5",
"z 	c #FBFB66",
"A 	c #EFEF48",
"B 	c #EEEE3B",
"C 	c #EDED30",
"D 	c #FDA6A6",
"E 	c #FF8A8A",
"F 	c #FF5F5F",
"G 	c #FF4444",
"H 	c #FF3939",
"I 	c #E52424",
"J 	c #C9C934",
"K 	c #F7F784",
"L 	c #EEEE31",
"M 	c #EEEE26",
"N 	c #EDED1B",
"O 	c #FE8686",
"P 	c #FE5F5F",
"Q 	c #FF3838",
"R 	c #FF2F2F",
"S 	c #FF2424",
"T 	c #E61414",
"U 	c #DADA37",
"V 	c #DADA1F",
"W 	c #DADA16",
"X 	c #DADA0E",
"Y 	c #D5D506",
"Z 	c #E83939",
"` 	c #FC3939",
" .	c #FB2424",
"..	c #FB1919",
"+.	c #FC0E0E",
"@.	c #CE0202",
"                                ",
"                                ",
"                                ",
"          . + @ # $ %           ",
"          & * = - ; >           ",
"          , ' ) ! ~ {           ",
"          ] ^ / ( _ : < [ } |   ",
"  1 2 3 4 5 6 7 8 9 0 a b c d   ",
"  e f g h i j k l m n c o p q   ",
"  r s t u v w     x y z A B C   ",
"  D E F G H I     J K B L M N   ",
"  O P Q R S T       U V W X Y   ",
"  Z `  ...+.@.                  ",
"                                ",
"                                ",
"                                "};
